{"glyphs":{" ":{"ha":315,"x_min":0,"x_max":0,"o":""},"A":{"ha":758,"x_min":0,"x_max":631,"o":"m 252 379 l 252 505 l 379 505 l 379 379 l 252 379 m 0 0 l 0 884 l 126 884 l 126 631 l 252 631 l 252 505 l 126 505 l 126 0 l 0 0 m 505 0 l 505 505 l 379 505 l 379 631 l 505 631 l 505 884 l 631 884 l 631 0 l 505 0 m 126 884 l 126 1010 l 505 1010 l 505 884 l 126 884 z "},"B":{"ha":758,"x_min":0,"x_max":631,"o":"m 126 0 l 126 126 l 505 126 l 505 0 l 126 0 m 252 379 l 252 505 l 379 505 l 379 379 l 252 379 m 505 126 l 505 505 l 631 505 l 631 126 l 505 126 m 379 505 l 379 631 l 505 631 l 505 505 l 379 505 m 0 126 l 0 884 l 126 884 l 126 631 l 252 631 l 252 505 l 126 505 l 126 126 l 0 126 m 505 631 l 505 884 l 631 884 l 631 631 l 505 631 m 126 884 l 126 1010 l 505 1010 l 505 884 l 126 884 z "},"C":{"ha":758,"x_min":0,"x_max":631,"o":"m 126 0 l 126 126 l 505 126 l 505 0 l 126 0 m 505 126 l 505 379 l 631 379 l 631 126 l 505 126 m 0 126 l 0 884 l 126 884 l 126 126 l 0 126 m 505 758 l 505 884 l 631 884 l 631 758 l 505 758 m 126 884 l 126 1010 l 505 1010 l 505 884 l 126 884 z "},"D":{"ha":884,"x_min":0,"x_max":758,"o":"m 126 0 l 126 126 l 505 126 l 505 0 l 126 0 m 505 126 l 505 379 l 631 379 l 631 126 l 505 126 m 631 379 l 631 631 l 758 631 l 758 379 l 631 379 m 0 126 l 0 884 l 126 884 l 126 126 l 0 126 m 505 631 l 505 884 l 631 884 l 631 631 l 505 631 m 126 884 l 126 1010 l 505 1010 l 505 884 l 126 884 z "},"E":{"ha":758,"x_min":0,"x_max":631,"o":"m 126 0 l 126 126 l 505 126 l 505 0 l 126 0 m 505 126 l 505 252 l 631 252 l 631 126 l 505 126 m 252 379 l 252 505 l 379 505 l 379 379 l 252 379 m 379 505 l 379 631 l 505 631 l 505 505 l 379 505 m 0 126 l 0 884 l 126 884 l 126 631 l 252 631 l 252 505 l 126 505 l 126 126 l 0 126 m 505 758 l 505 884 l 631 884 l 631 758 l 505 758 m 126 884 l 126 1010 l 505 1010 l 505 884 l 126 884 z "},"F":{"ha":758,"x_min":0,"x_max":631,"o":"m 252 379 l 252 505 l 379 505 l 379 379 l 252 379 m 379 505 l 379 631 l 505 631 l 505 505 l 379 505 m 0 0 l 0 884 l 126 884 l 126 631 l 252 631 l 252 505 l 126 505 l 126 0 l 0 0 m 505 758 l 505 884 l 631 884 l 631 758 l 505 758 m 126 884 l 126 1010 l 505 1010 l 505 884 l 126 884 z "},"G":{"ha":758,"x_min":0,"x_max":631,"o":"m 126 0 l 126 126 l 505 126 l 505 0 l 126 0 m 505 126 l 505 379 l 631 379 l 631 126 l 505 126 m 379 379 l 379 505 l 505 505 l 505 379 l 379 379 m 252 505 l 252 631 l 379 631 l 379 505 l 252 505 m 505 505 l 505 631 l 631 631 l 631 505 l 505 505 m 0 126 l 0 884 l 126 884 l 126 126 l 0 126 m 505 758 l 505 884 l 631 884 l 631 758 l 505 758 m 126 884 l 126 1010 l 505 1010 l 505 884 l 126 884 z "},"H":{"ha":884,"x_min":0,"x_max":758,"o":"m 0 0 l 0 379 l 126 379 l 126 0 l 0 0 m 126 379 l 126 505 l 379 505 l 379 379 l 126 379 m 631 0 l 631 505 l 758 505 l 758 0 l 631 0 m 379 505 l 379 631 l 631 631 l 631 505 l 379 505 m 0 505 l 0 1010 l 126 1010 l 126 505 l 0 505 m 631 631 l 631 1010 l 758 1010 l 758 631 l 631 631 z "},"I":{"ha":505,"x_min":0,"x_max":379,"o":"m 126 0 l 126 252 l 252 252 l 252 0 l 126 0 m 252 252 l 252 379 l 379 379 l 379 252 l 252 252 m 126 379 l 126 505 l 252 505 l 252 379 l 126 379 m 0 505 l 0 631 l 126 631 l 126 505 l 0 505 m 126 631 l 126 758 l 252 758 l 252 631 l 126 631 m 252 758 l 252 884 l 379 884 l 379 758 l 252 758 m 126 884 l 126 1010 l 252 1010 l 252 884 l 126 884 z "},"J":{"ha":758,"x_min":0,"x_max":631,"o":"m 126 0 l 126 126 l 505 126 l 505 0 l 126 0 m 0 126 l 0 379 l 126 379 l 126 126 l 0 126 m 0 758 l 0 884 l 126 884 l 126 758 l 0 758 m 505 126 l 505 884 l 631 884 l 631 126 l 505 126 m 126 884 l 126 1010 l 505 1010 l 505 884 l 126 884 z "},"K":{"ha":758,"x_min":0,"x_max":631,"o":"m 505 0 l 505 379 l 631 379 l 631 0 l 505 0 m 379 379 l 379 505 l 505 505 l 505 379 l 379 379 m 379 631 l 379 758 l 505 758 l 505 631 l 379 631 m 0 0 l 0 1010 l 126 1010 l 126 631 l 379 631 l 379 505 l 126 505 l 126 0 l 0 0 m 505 758 l 505 1010 l 631 1010 l 631 758 l 505 758 z "},"L":{"ha":758,"x_min":0,"x_max":631,"o":"m 126 0 l 126 126 l 252 126 l 252 0 l 126 0 m 379 0 l 379 126 l 631 126 l 631 0 l 379 0 m 252 126 l 252 252 l 379 252 l 379 126 l 252 126 m 0 126 l 0 1010 l 126 1010 l 126 126 l 0 126 z "},"M":{"ha":1010,"x_min":0,"x_max":884,"o":"m 0 0 l 0 126 l 126 126 l 126 0 l 0 0 m 758 0 l 758 126 l 884 126 l 884 0 l 758 0 m 126 126 l 126 252 l 252 252 l 252 126 l 126 126 m 631 126 l 631 252 l 758 252 l 758 126 l 631 126 m 379 252 l 379 379 l 505 379 l 505 252 l 379 252 m 252 379 l 252 758 l 379 758 l 379 379 l 252 379 m 505 379 l 505 758 l 631 758 l 631 379 l 505 379 m 0 252 l 0 1010 l 126 1010 l 126 884 l 252 884 l 252 758 l 126 758 l 126 252 l 0 252 m 758 252 l 758 758 l 631 758 l 631 884 l 758 884 l 758 1010 l 884 1010 l 884 252 l 758 252 z "},"N":{"ha":884,"x_min":0,"x_max":758,"o":"m 379 252 l 379 379 l 505 379 l 505 252 l 379 252 m 252 379 l 252 758 l 379 758 l 379 379 l 252 379 m 0 0 l 0 1010 l 126 1010 l 126 884 l 252 884 l 252 758 l 126 758 l 126 0 l 0 0 m 631 0 l 631 126 l 505 126 l 505 252 l 631 252 l 631 1010 l 758 1010 l 758 0 l 631 0 z "},"O":{"ha":1010,"x_min":0,"x_max":884,"o":"m 252 0 l 252 126 l 631 126 l 631 0 l 252 0 m 126 126 l 126 252 l 252 252 l 252 126 l 126 126 m 631 126 l 631 252 l 758 252 l 758 126 l 631 126 m 0 252 l 0 758 l 126 758 l 126 252 l 0 252 m 758 252 l 758 758 l 884 758 l 884 252 l 758 252 m 126 758 l 126 884 l 252 884 l 252 758 l 126 758 m 631 758 l 631 884 l 758 884 l 758 758 l 631 758 m 252 884 l 252 1010 l 631 1010 l 631 884 l 252 884 z "},"P":{"ha":758,"x_min":0,"x_max":631,"o":"m 379 379 l 379 505 l 505 505 l 505 379 l 379 379 m 252 505 l 252 631 l 379 631 l 379 505 l 252 505 m 0 0 l 0 884 l 126 884 l 126 505 l 252 505 l 252 379 l 126 379 l 126 0 l 0 0 m 505 505 l 505 884 l 631 884 l 631 505 l 505 505 m 126 884 l 126 1010 l 505 1010 l 505 884 l 126 884 z "},"Q":{"ha":1010,"x_min":0,"x_max":884,"o":"m 252 0 l 252 126 l 631 126 l 631 0 l 252 0 m 758 0 l 758 126 l 884 126 l 884 0 l 758 0 m 126 126 l 126 252 l 252 252 l 252 126 l 126 126 m 631 126 l 631 252 l 758 252 l 758 126 l 631 126 m 505 252 l 505 379 l 631 379 l 631 252 l 505 252 m 0 252 l 0 758 l 126 758 l 126 252 l 0 252 m 758 252 l 758 758 l 884 758 l 884 252 l 758 252 m 126 758 l 126 884 l 252 884 l 252 758 l 126 758 m 631 758 l 631 884 l 758 884 l 758 758 l 631 758 m 252 884 l 252 1010 l 631 1010 l 631 884 l 252 884 z "},"R":{"ha":758,"x_min":0,"x_max":631,"o":"m 505 0 l 505 379 l 631 379 l 631 0 l 505 0 m 379 379 l 379 505 l 505 505 l 505 379 l 379 379 m 252 505 l 252 631 l 379 631 l 379 505 l 252 505 m 0 0 l 0 884 l 126 884 l 126 505 l 252 505 l 252 379 l 126 379 l 126 0 l 0 0 m 505 505 l 505 884 l 631 884 l 631 505 l 505 505 m 126 884 l 126 1010 l 505 1010 l 505 884 l 126 884 z "},"S":{"ha":758,"x_min":0,"x_max":631,"o":"m 126 0 l 126 126 l 505 126 l 505 0 l 126 0 m 0 126 l 0 379 l 126 379 l 126 126 l 0 126 m 252 379 l 252 505 l 379 505 l 379 379 l 252 379 m 505 126 l 505 505 l 631 505 l 631 126 l 505 126 m 126 505 l 126 631 l 252 631 l 252 505 l 126 505 m 379 505 l 379 631 l 505 631 l 505 505 l 379 505 m 0 631 l 0 884 l 126 884 l 126 631 l 0 631 m 505 758 l 505 884 l 631 884 l 631 758 l 505 758 m 126 884 l 126 1010 l 505 1010 l 505 884 l 126 884 z "},"T":{"ha":758,"x_min":0,"x_max":631,"o":"m 252 0 l 252 252 l 379 252 l 379 0 l 252 0 m 379 252 l 379 379 l 505 379 l 505 252 l 379 252 m 252 379 l 252 505 l 379 505 l 379 379 l 252 379 m 126 505 l 126 631 l 252 631 l 252 505 l 126 505 m 0 758 l 0 884 l 126 884 l 126 758 l 0 758 m 505 758 l 505 884 l 631 884 l 631 758 l 505 758 m 252 631 l 252 884 l 126 884 l 126 1010 l 505 1010 l 505 884 l 379 884 l 379 631 l 252 631 z "},"U":{"ha":1010,"x_min":0,"x_max":884,"o":"m 252 0 l 252 126 l 631 126 l 631 0 l 252 0 m 126 126 l 126 631 l 252 631 l 252 126 l 126 126 m 631 126 l 631 631 l 758 631 l 758 126 l 631 126 m 0 631 l 0 758 l 126 758 l 126 631 l 0 631 m 758 631 l 758 758 l 884 758 l 884 631 l 758 631 m 126 758 l 126 1010 l 252 1010 l 252 758 l 126 758 m 631 758 l 631 1010 l 758 1010 l 758 758 l 631 758 z "},"V":{"ha":758,"x_min":0,"x_max":631,"o":"m 252 0 l 252 126 l 379 126 l 379 0 l 252 0 m 126 126 l 126 379 l 252 379 l 252 126 l 126 126 m 379 126 l 379 379 l 505 379 l 505 126 l 379 126 m 0 379 l 0 1010 l 126 1010 l 126 379 l 0 379 m 505 379 l 505 1010 l 631 1010 l 631 379 l 505 379 z "},"W":{"ha":1010,"x_min":0,"x_max":884,"o":"m 252 252 l 252 631 l 379 631 l 379 252 l 252 252 m 505 252 l 505 631 l 631 631 l 631 252 l 505 252 m 0 0 l 0 758 l 126 758 l 126 252 l 252 252 l 252 126 l 126 126 l 126 0 l 0 0 m 379 631 l 379 758 l 505 758 l 505 631 l 379 631 m 758 0 l 758 126 l 631 126 l 631 252 l 758 252 l 758 758 l 884 758 l 884 0 l 758 0 m 126 758 l 126 884 l 252 884 l 252 758 l 126 758 m 631 758 l 631 884 l 758 884 l 758 758 l 631 758 m 0 884 l 0 1010 l 126 1010 l 126 884 l 0 884 m 758 884 l 758 1010 l 884 1010 l 884 884 l 758 884 z "},"X":{"ha":631,"x_min":0,"x_max":505,"o":"m 252 0 l 252 126 l 379 126 l 379 0 l 252 0 m 0 0 l 0 505 l 126 505 l 126 0 l 0 0 m 379 126 l 379 505 l 505 505 l 505 126 l 379 126 m 126 505 l 126 631 l 379 631 l 379 505 l 126 505 m 0 631 l 0 884 l 126 884 l 126 631 l 0 631 m 126 884 l 126 1010 l 252 1010 l 252 884 l 126 884 m 379 631 l 379 1010 l 505 1010 l 505 631 l 379 631 z "},"Y":{"ha":631,"x_min":126,"x_max":505,"o":"m 252 0 l 252 252 l 379 252 l 379 0 l 252 0 m 126 252 l 126 379 l 252 379 l 252 252 l 126 252 m 379 252 l 379 379 l 505 379 l 505 252 l 379 252 m 252 379 l 252 631 l 379 631 l 379 379 l 252 379 m 126 631 l 126 1010 l 252 1010 l 252 631 l 126 631 m 379 631 l 379 1010 l 505 1010 l 505 631 l 379 631 z "},"Z":{"ha":758,"x_min":0,"x_max":631,"o":"m 379 0 l 379 126 l 631 126 l 631 0 l 379 0 m 252 126 l 252 252 l 379 252 l 379 126 l 252 126 m 0 0 l 0 379 l 126 379 l 126 126 l 252 126 l 252 0 l 0 0 m 126 379 l 126 505 l 252 505 l 252 379 l 126 379 m 252 505 l 252 631 l 379 631 l 379 505 l 252 505 m 379 631 l 379 758 l 505 758 l 505 631 l 379 631 m 505 758 l 505 884 l 0 884 l 0 1010 l 631 1010 l 631 758 l 505 758 z "},"a":{"ha":758,"x_min":0,"x_max":631,"o":"m 126 0 l 126 126 l 379 126 l 379 0 l 126 0 m 505 0 l 505 126 l 631 126 l 631 0 l 505 0 m 0 126 l 0 505 l 126 505 l 126 126 l 0 126 m 379 126 l 379 505 l 126 505 l 126 631 l 505 631 l 505 126 l 379 126 z "},"b":{"ha":758,"x_min":0,"x_max":631,"o":"m 0 0 l 0 126 l 126 126 l 126 0 l 0 0 m 252 0 l 252 126 l 505 126 l 505 0 l 252 0 m 505 126 l 505 505 l 631 505 l 631 126 l 505 126 m 379 505 l 379 631 l 505 631 l 505 505 l 379 505 m 126 126 l 126 1010 l 252 1010 l 252 505 l 379 505 l 379 379 l 252 379 l 252 126 l 126 126 z "},"c":{"ha":631,"x_min":0,"x_max":505,"o":"m 126 0 l 126 126 l 379 126 l 379 0 l 126 0 m 379 126 l 379 252 l 505 252 l 505 126 l 379 126 m 0 126 l 0 505 l 126 505 l 126 126 l 0 126 m 379 379 l 379 505 l 505 505 l 505 379 l 379 379 m 126 505 l 126 631 l 379 631 l 379 505 l 126 505 z "},"d":{"ha":758,"x_min":0,"x_max":631,"o":"m 126 0 l 126 126 l 379 126 l 379 0 l 126 0 m 505 0 l 505 126 l 631 126 l 631 0 l 505 0 m 0 126 l 0 505 l 126 505 l 126 126 l 0 126 m 126 505 l 126 631 l 252 631 l 252 505 l 126 505 m 379 126 l 379 379 l 252 379 l 252 505 l 379 505 l 379 1010 l 505 1010 l 505 126 l 379 126 z "},"e":{"ha":631,"x_min":0,"x_max":505,"o":"m 126 0 l 126 126 l 505 126 l 505 0 l 126 0 m 0 126 l 0 505 l 126 505 l 126 379 l 379 379 l 379 252 l 126 252 l 126 126 l 0 126 m 379 379 l 379 505 l 505 505 l 505 379 l 379 379 m 126 505 l 126 631 l 379 631 l 379 505 l 126 505 z "},"f":{"ha":631,"x_min":0,"x_max":505,"o":"m 126 0 l 126 379 l 252 379 l 252 0 l 126 0 m 0 379 l 0 505 l 126 505 l 126 379 l 0 379 m 252 379 l 252 505 l 379 505 l 379 379 l 252 379 m 126 505 l 126 884 l 252 884 l 252 505 l 126 505 m 379 631 l 379 884 l 505 884 l 505 631 l 379 631 m 252 884 l 252 1010 l 379 1010 l 379 884 l 252 884 z "},"g":{"ha":505,"x_min":-126,"x_max":379,"o":"m 0 -379 l 0 -252 l 252 -252 l 252 -379 l 0 -379 m -126 -252 l -126 -126 l 0 -126 l 0 -252 l -126 -252 m 252 -252 l 252 0 l 379 0 l 379 -252 l 252 -252 m 0 0 l 0 126 l 252 126 l 252 0 l 0 0 m -126 126 l -126 505 l 0 505 l 0 126 l -126 126 m 252 126 l 252 505 l 379 505 l 379 126 l 252 126 m 0 505 l 0 631 l 252 631 l 252 505 l 0 505 z "},"h":{"ha":631,"x_min":0,"x_max":505,"o":"m 379 0 l 379 505 l 505 505 l 505 0 l 379 0 m 252 505 l 252 631 l 379 631 l 379 505 l 252 505 m 0 0 l 0 758 l 126 758 l 126 505 l 252 505 l 252 379 l 126 379 l 126 0 l 0 0 m 126 758 l 126 884 l 252 884 l 252 758 l 126 758 m 0 884 l 0 1010 l 126 1010 l 126 884 l 0 884 z "},"i":{"ha":505,"x_min":0,"x_max":379,"o":"m 126 0 l 126 505 l 252 505 l 252 0 l 126 0 m 126 631 l 126 758 l 252 758 l 252 631 l 126 631 m 0 758 l 0 884 l 126 884 l 126 758 l 0 758 m 252 758 l 252 884 l 379 884 l 379 758 l 252 758 m 126 884 l 126 1010 l 252 1010 l 252 884 l 126 884 z "},"j":{"ha":379,"x_min":-126,"x_max":252,"o":"m -126 -379 l -126 -252 l 126 -252 l 126 -379 l -126 -379 m 126 -252 l 126 0 l 252 0 l 252 -252 l 126 -252 m 0 0 l 0 126 l 126 126 l 126 0 l 0 0 m 126 126 l 126 505 l 252 505 l 252 126 l 126 126 m 126 631 l 126 758 l 252 758 l 252 631 l 126 631 z "},"k":{"ha":505,"x_min":0,"x_max":379,"o":"m 252 0 l 252 252 l 379 252 l 379 0 l 252 0 m 252 379 l 252 631 l 379 631 l 379 379 l 252 379 m 0 0 l 0 884 l 126 884 l 126 379 l 252 379 l 252 252 l 126 252 l 126 0 l 0 0 m 126 884 l 126 1010 l 252 1010 l 252 884 l 126 884 z "},"l":{"ha":379,"x_min":0,"x_max":252,"o":"m 126 0 l 126 631 l 252 631 l 252 0 l 126 0 m 0 631 l 0 758 l 126 758 l 126 631 l 0 631 m 126 758 l 126 1010 l 252 1010 l 252 758 l 126 758 z "},"m":{"ha":758,"x_min":0,"x_max":631,"o":"m 0 0 l 0 505 l 126 505 l 126 0 l 0 0 m 252 379 l 252 505 l 379 505 l 379 379 l 252 379 m 505 0 l 505 505 l 631 505 l 631 0 l 505 0 m 126 505 l 126 631 l 252 631 l 252 505 l 126 505 m 379 505 l 379 631 l 505 631 l 505 505 l 379 505 z "},"n":{"ha":631,"x_min":0,"x_max":505,"o":"m 0 0 l 0 631 l 126 631 l 126 505 l 252 505 l 252 379 l 126 379 l 126 0 l 0 0 m 379 0 l 379 505 l 252 505 l 252 631 l 505 631 l 505 0 l 379 0 z "},"o":{"ha":631,"x_min":0,"x_max":505,"o":"m 126 0 l 126 126 l 379 126 l 379 0 l 126 0 m 0 126 l 0 505 l 126 505 l 126 126 l 0 126 m 379 126 l 379 505 l 505 505 l 505 126 l 379 126 m 126 505 l 126 631 l 379 631 l 379 505 l 126 505 z "},"p":{"ha":631,"x_min":0,"x_max":505,"o":"m 252 0 l 252 126 l 379 126 l 379 0 l 252 0 m 0 -379 l 0 505 l 126 505 l 126 252 l 252 252 l 252 126 l 126 126 l 126 -379 l 0 -379 m 379 126 l 379 505 l 505 505 l 505 126 l 379 126 m 126 505 l 126 631 l 379 631 l 379 505 l 126 505 z "},"q":{"ha":631,"x_min":-126,"x_max":505,"o":"m 252 0 l 252 126 l 379 126 l 379 0 l 252 0 m 0 -379 l 0 -252 l -126 -252 l -126 -126 l 0 -126 l 0 505 l 126 505 l 126 252 l 252 252 l 252 126 l 126 126 l 126 -379 l 0 -379 m 379 126 l 379 505 l 505 505 l 505 126 l 379 126 m 126 505 l 126 631 l 379 631 l 379 505 l 126 505 z "},"r":{"ha":631,"x_min":0,"x_max":505,"o":"m 0 0 l 0 631 l 126 631 l 126 505 l 252 505 l 252 379 l 126 379 l 126 0 l 0 0 m 252 505 l 252 631 l 505 631 l 505 505 l 252 505 z "},"s":{"ha":631,"x_min":0,"x_max":505,"o":"m 0 0 l 0 126 l 379 126 l 379 0 l 0 0 m 379 126 l 379 252 l 505 252 l 505 126 l 379 126 m 126 252 l 126 379 l 379 379 l 379 252 l 126 252 m 0 379 l 0 505 l 126 505 l 126 379 l 0 379 m 126 505 l 126 631 l 505 631 l 505 505 l 126 505 z "},"t":{"ha":505,"x_min":0,"x_max":379,"o":"m 126 0 l 126 505 l 252 505 l 252 0 l 126 0 m 0 505 l 0 631 l 126 631 l 126 505 l 0 505 m 252 505 l 252 631 l 379 631 l 379 505 l 252 505 m 126 631 l 126 1010 l 252 1010 l 252 631 l 126 631 z "},"u":{"ha":631,"x_min":0,"x_max":505,"o":"m 126 0 l 126 126 l 379 126 l 379 0 l 126 0 m 0 126 l 0 631 l 126 631 l 126 126 l 0 126 m 379 126 l 379 631 l 505 631 l 505 126 l 379 126 z "},"v":{"ha":505,"x_min":0,"x_max":379,"o":"m 126 0 l 126 126 l 252 126 l 252 0 l 126 0 m 0 126 l 0 631 l 126 631 l 126 126 l 0 126 m 252 126 l 252 631 l 379 631 l 379 126 l 252 126 z "},"w":{"ha":758,"x_min":0,"x_max":631,"o":"m 126 0 l 126 126 l 252 126 l 252 0 l 126 0 m 379 0 l 379 126 l 505 126 l 505 0 l 379 0 m 252 126 l 252 252 l 379 252 l 379 126 l 252 126 m 0 126 l 0 631 l 126 631 l 126 126 l 0 126 m 505 126 l 505 631 l 631 631 l 631 126 l 505 126 z "},"x":{"ha":505,"x_min":0,"x_max":379,"o":"m 0 0 l 0 252 l 126 252 l 126 379 l 252 379 l 252 252 l 379 252 l 379 0 l 252 0 l 252 126 l 126 126 l 126 0 l 0 0 m 0 379 l 0 631 l 126 631 l 126 379 l 0 379 m 252 379 l 252 631 l 379 631 l 379 379 l 252 379 z "},"y":{"ha":631,"x_min":0,"x_max":505,"o":"m 126 -379 l 126 -252 l 379 -252 l 379 -379 l 126 -379 m 0 -252 l 0 -126 l 126 -126 l 126 -252 l 0 -252 m 126 0 l 126 126 l 252 126 l 252 0 l 126 0 m 379 -252 l 379 126 l 505 126 l 505 -252 l 379 -252 m 252 126 l 252 252 l 379 252 l 379 126 l 252 126 m 0 126 l 0 631 l 126 631 l 126 126 l 0 126 m 379 252 l 379 631 l 505 631 l 505 252 l 379 252 z "},"z":{"ha":631,"x_min":0,"x_max":505,"o":"m 0 0 l 0 252 l 126 252 l 126 126 l 505 126 l 505 0 l 0 0 m 126 252 l 126 379 l 379 379 l 379 252 l 126 252 m 379 379 l 379 505 l 0 505 l 0 631 l 505 631 l 505 379 l 379 379 z "}}}
